<svg width="47" height="58" viewBox="0 0 47 58" fill="none" xmlns="http://www.w3.org/2000/svg">
<path d="M28.4777 51.5154C28.697 51.296 29.0012 51.1699 29.3114 51.1699C29.6215 51.1699 29.9257 51.296 30.1451 51.5154C30.3644 51.7349 30.4906 52.039 30.4906 52.3492C30.4906 52.6593 30.3645 52.9636 30.1451 53.1828C29.9257 53.4021 29.6215 53.5284 29.3114 53.5284C29.0012 53.5284 28.697 53.4022 28.4777 53.1828C28.2583 52.9636 28.1321 52.6593 28.1321 52.3492C28.1321 52.039 28.2583 51.7348 28.4777 51.5154Z" fill="black"/>
<path d="M13.6488 3.52856H20.4455C21.0434 3.52856 21.5283 4.05651 21.5283 4.70781C21.5283 5.35911 21.0434 5.88705 20.4455 5.88705H13.6488C13.0509 5.88705 12.5661 5.35911 12.5661 4.70781C12.5661 4.05651 13.0509 3.52856 13.6488 3.52856Z" fill="black"/>
<path fill-rule="evenodd" clip-rule="evenodd" d="M2.99601 33.5721V41.8069H19.656L16.122 36.8113C15.279 35.6197 15.1706 34.0731 15.8391 32.7749C16.5076 31.4766 17.8276 30.6701 19.2842 30.6701C20.113 30.6701 20.9356 30.9436 21.6007 31.4405L28.6189 36.6856C28.8742 36.8765 29.1904 36.9816 29.5089 36.9816C30.3304 36.9816 30.9985 36.3112 30.9985 35.4872V34.1151V8.70338H2.99601V33.5721ZM0.773586 4.25685V33.5721V47.2521C0.773586 49.4743 2.57586 51.2824 4.79106 51.2824H22.8387V56.1873C22.8387 56.8028 23.3363 57.302 23.9499 57.302C24.5635 57.302 25.0611 56.8028 25.0611 56.1873V48.0496H44.7776V56.1873C44.7776 56.8028 45.2752 57.302 45.8888 57.302C46.5024 57.302 47 56.8028 47 56.1873V48.0496C47 46.8202 46.003 45.8201 44.7776 45.8201H43.7789V34.1631C43.7789 29.8379 42.7784 25.4977 40.8854 21.6118C39.0728 17.8909 36.4285 14.5635 33.221 11.9542V4.25685C33.221 2.03447 31.4187 0.226562 29.2035 0.226562H4.79106C2.57586 0.226562 0.773586 2.03447 0.773586 4.25685ZM2.9959 47.252V44.0364H21.2198C21.2287 44.0364 21.2375 44.0358 21.2463 44.0352C21.2522 44.0348 21.2581 44.0344 21.264 44.0342C21.9762 44.9071 22.8127 45.6559 23.738 46.2623C23.1935 46.669 22.8386 47.3177 22.8386 48.0495V49.0528H4.79095C3.8012 49.0528 2.9959 48.2449 2.9959 47.252ZM29.5089 39.2111C28.7152 39.2111 27.9277 38.9491 27.2912 38.4736L20.2731 33.2284C19.9892 33.0164 19.638 32.8996 19.2843 32.8996C18.6532 32.8996 18.1035 33.2354 17.8139 33.7981C17.5243 34.3606 17.5694 35.0046 17.9347 35.5209L22.6239 42.1497C24.2497 44.4479 26.8975 45.82 29.7066 45.82H41.5566V34.163C41.5566 26.7714 38.5452 19.8746 33.2211 14.9027V34.1151V35.4871C33.2211 37.5405 31.5558 39.2111 29.5089 39.2111ZM30.9987 4.25682V6.47385H2.99612V4.25682C2.99612 3.26391 3.80141 2.45605 4.79128 2.45605H29.2036C30.1934 2.45605 30.9987 3.26391 30.9987 4.25682Z" fill="black"/>
<path d="M24.1926 18.9576C23.8404 18.9576 23.5549 19.252 23.5549 19.6151V20.2774C23.554 22.0051 22.9007 23.6289 21.7154 24.8498C20.531 26.0698 18.9571 26.7416 17.2831 26.7416H17.2794C13.8211 26.7395 11.0092 23.8364 11.0111 20.27C11.0121 18.5424 11.6654 16.9186 12.8507 15.6976C14.0351 14.4776 15.6091 13.8059 17.283 13.8059H17.2867C18.1706 13.8064 19.0283 13.9948 19.8357 14.3658C20.1575 14.5136 20.5343 14.3645 20.6777 14.0328C20.821 13.7011 20.6765 13.3123 20.3548 13.1645C19.3831 12.718 18.3511 12.4913 17.2874 12.4907H17.2829C15.2688 12.4907 13.3746 13.2992 11.9494 14.7672C10.5232 16.2363 9.73703 18.1904 9.73586 20.2693C9.73472 22.3482 10.5186 24.3032 11.9433 25.774C13.368 27.2449 15.2628 28.0556 17.2787 28.0568H17.2831C19.2973 28.0568 21.1914 27.2483 22.6166 25.7803C24.0429 24.3111 24.829 22.3571 24.8302 20.2778V19.6152C24.8302 19.252 24.5447 18.9576 24.1926 18.9576Z" fill="black" stroke="black" stroke-width="1.6"/>
<path d="M26.0521 12.2076C25.7946 11.9562 25.3772 11.9562 25.1197 12.2076L17.7271 19.4269L16.05 17.7891C15.7925 17.5376 15.375 17.5376 15.1176 17.7891C14.8601 18.0405 14.8601 18.4482 15.1176 18.6996L17.2609 20.7927C17.3897 20.9185 17.5584 20.9813 17.7271 20.9813C17.8959 20.9813 18.0646 20.9185 18.1934 20.7927L26.0521 13.1182C26.3096 12.8667 26.3096 12.4591 26.0521 12.2076Z" fill="black" stroke="black" stroke-width="1.6"/>
<path d="M16.2136 45.8552C16.4328 45.6358 16.7371 45.5095 17.0472 45.5095C17.3573 45.5095 17.6616 45.6357 17.8809 45.8552C18.1003 46.0744 18.2264 46.3786 18.2264 46.6888C18.2264 47.0002 18.1004 47.3032 17.8809 47.5225C17.6616 47.7431 17.3573 47.868 17.0472 47.868C16.7371 47.868 16.4328 47.743 16.2136 47.5225C15.9942 47.3032 15.8679 47.0001 15.8679 46.6888C15.8679 46.3786 15.9941 46.0744 16.2136 45.8552Z" fill="black"/>
</svg>
